<svg xmlns="http://www.w3.org/2000/svg" version="1.1" xmlns:xlink="http://www.w3.org/1999/xlink" xmlns:svgjs="http://svgjs.dev/svgjs" width="128" height="127"><svg width="128" height="127" viewBox="0 0 128 127" fill="none" xmlns="http://www.w3.org/2000/svg">
<path d="M93.2653 39.0154C93.1026 39.1192 92.9701 39.2637 92.881 39.4346C92.7918 39.6054 92.7493 39.7966 92.7575 39.989V56.0341C88.8259 54.554 84.6955 53.6648 80.5017 53.3957H80.4333H79.8669H79.5935H78.861C78.0817 53.4291 77.307 53.5334 76.5466 53.7072C72.445 54.5153 67.8747 56.6281 66.488 57.699L65.5115 54.3303C65.4635 54.1709 65.3655 54.031 65.2319 53.9311C65.0984 53.8312 64.9362 53.7767 64.7693 53.7754H62.7478V106L65.9119 103.985C66.0746 103.881 66.2071 103.736 66.2962 103.565C66.3853 103.395 66.4279 103.203 66.4197 103.011V86.9658C70.3559 88.437 74.4896 89.3163 78.6853 89.5751H78.7439H79.3103H79.5837H80.3161C81.0955 89.5417 81.8702 89.4375 82.6306 89.2636C86.7321 88.4555 91.3024 86.3427 92.6891 85.2718L93.6657 88.6405C93.7137 88.7999 93.8117 88.9398 93.9452 89.0397C94.0788 89.1395 94.2409 89.1941 94.4079 89.1954H96.4294V37L93.2653 39.0154ZM79.5935 85.8365H79.4079C74.6911 85.7294 71.4978 81.3968 71.4978 71.7385C71.4978 59.8312 74.8376 57.1343 79.5837 57.1343H79.7693C84.486 57.2414 87.6794 61.574 87.6794 71.2323C87.6794 83.1785 84.3396 85.8365 79.5935 85.8365Z" fill="#00C4B3"></path>
<path d="M70.6974 37C65.3343 37.1442 60.1563 38.9855 55.9122 42.2575C51.6682 38.9855 46.4902 37.1442 41.1271 37C34.6428 37 30.1603 41.8681 30.1603 48.3815V71.0765C30.1542 71.2707 30.1997 71.4632 30.2923 71.6342C30.3849 71.8052 30.5214 71.9487 30.6877 72.0501L33.9689 73.9973V48.3815C33.9689 43.9905 36.7814 40.7874 41.1271 40.7874C44.0459 40.7466 46.9478 41.2349 49.6916 42.2283C50.5289 42.5772 51.3195 43.0285 52.0451 43.5719L52.4455 43.9613L52.6212 44.1074C53.366 44.9149 53.9394 45.8641 54.3069 46.8981C54.6744 47.9321 54.8285 49.0295 54.7599 50.1243L54.3302 60.172C54.3289 60.2163 54.3365 60.2604 54.3526 60.3017C54.3687 60.343 54.393 60.3806 54.4239 60.4124C54.4549 60.4442 54.492 60.4694 54.5329 60.4867C54.5738 60.5039 54.6178 60.5128 54.6622 60.5128H57.1525C57.1985 60.5155 57.2446 60.5086 57.2879 60.4926C57.3311 60.4766 57.3705 60.4517 57.4036 60.4197C57.4367 60.3876 57.4627 60.349 57.48 60.3064C57.4973 60.2637 57.5055 60.218 57.504 60.172L57.0743 50.1243C57.0064 49.0386 57.1572 47.9503 57.5178 46.9236C57.8784 45.8969 58.4415 44.9526 59.174 44.1463C59.2444 44.087 59.3097 44.0218 59.3693 43.9516L59.4572 43.8153L59.5158 43.7569C60.307 43.1179 61.189 42.5994 62.1329 42.2186C64.4474 41.0308 67.2989 40.6803 70.6485 40.8166C74.9942 40.9821 77.8067 44.01 77.8067 48.4108V73.9973L81.088 71.9819C81.2543 71.8806 81.3907 71.7371 81.4833 71.566C81.576 71.395 81.6215 71.2026 81.6153 71.0083V47.2132C81.6641 41.8681 77.1817 37 70.6974 37Z" fill="#706F6F"></path>
<circle cx="63.66" cy="63.5" r="62" stroke="#00C4B3" stroke-width="3"></circle>
</svg><style>@media (prefers-color-scheme: light) { :root { filter: none; } }
@media (prefers-color-scheme: dark) { :root { filter: none; } }
</style></svg>