<svg width="79" height="32" viewBox="0 0 79 32" fill="none" xmlns="http://www.w3.org/2000/svg">
<path d="M13.3409 11.92C15.4476 12.08 17.1409 12.7867 18.4209 14.04C19.7276 15.2667 20.3809 16.8 20.3809 18.64C20.3809 20.0533 20.0343 21.3333 19.3409 22.48C18.6476 23.6267 17.6876 24.5333 16.4609 25.2C15.2609 25.84 13.9143 26.16 12.4209 26.16C11.5409 26.16 10.5809 26.12 9.54094 26.04C9.1676 26.0133 8.7276 25.9867 8.22094 25.96C7.71427 25.9333 7.15427 25.92 6.54094 25.92L3.82094 25.96C3.34094 25.9867 2.66094 26 1.78094 26C1.7276 26 1.70094 25.92 1.70094 25.76C1.70094 25.6 1.7276 25.52 1.78094 25.52C2.79427 25.52 3.54094 25.4533 4.02094 25.32C4.50094 25.16 4.83427 24.8933 5.02094 24.52C5.2076 24.1467 5.30094 23.56 5.30094 22.76V4.24C5.30094 3.44 5.2076 2.85333 5.02094 2.48C4.86094 2.10667 4.54094 1.85333 4.06094 1.72C3.58094 1.56 2.8476 1.48 1.86094 1.48C1.78094 1.48 1.74094 1.4 1.74094 1.24C1.74094 1.08 1.78094 1 1.86094 1L3.82094 1.04C4.94094 1.09333 5.8476 1.12 6.54094 1.12C7.02094 1.12 7.46094 1.10667 7.86094 1.08C8.2876 1.05333 8.6476 1.02667 8.94094 1C9.7676 0.919999 10.5409 0.879999 11.2609 0.879999C13.5009 0.879999 15.1809 1.37333 16.3009 2.36C17.4209 3.32 17.9809 4.58667 17.9809 6.16C17.9809 7.44 17.5676 8.58667 16.7409 9.6C15.9143 10.5867 14.7809 11.36 13.3409 11.92ZM10.3809 1.48C9.6876 1.48 9.1676 1.53333 8.82094 1.64C8.50094 1.74667 8.26094 2 8.10094 2.4C7.94094 2.8 7.86094 3.44 7.86094 4.32V11.92L9.66094 11.96C11.6076 11.96 13.0476 11.4667 13.9809 10.48C14.9143 9.46667 15.3809 8.13333 15.3809 6.48C15.3809 4.98667 14.9676 3.78667 14.1409 2.88C13.3409 1.94667 12.0876 1.48 10.3809 1.48ZM11.8209 25.44C13.7676 25.44 15.2076 24.9467 16.1409 23.96C17.1009 22.9467 17.5809 21.5067 17.5809 19.64C17.5809 17.6133 16.9809 15.9733 15.7809 14.72C14.6076 13.4667 12.9809 12.8267 10.9009 12.8C10.0476 12.7733 9.03427 12.8 7.86094 12.88V22.76C7.86094 23.4533 7.95427 23.9867 8.14094 24.36C8.35427 24.7333 8.74094 25.0133 9.30094 25.2C9.8876 25.36 10.7276 25.44 11.8209 25.44ZM34.8856 26.16C34.1123 26.16 33.219 26.12 32.2056 26.04C31.8323 26.0133 31.3523 25.9867 30.7656 25.96C30.2056 25.9333 29.579 25.92 28.8856 25.92L26.1656 25.96C25.6856 25.9867 25.019 26 24.1656 26C24.1123 26 24.0856 25.92 24.0856 25.76C24.0856 25.6 24.1123 25.52 24.1656 25.52C25.179 25.52 25.9123 25.4533 26.3656 25.32C26.8456 25.1867 27.1656 24.9333 27.3256 24.56C27.5123 24.16 27.6056 23.56 27.6056 22.76V4.24C27.6056 3.44 27.5256 2.85333 27.3656 2.48C27.2056 2.10667 26.8856 1.85333 26.4056 1.72C25.9523 1.56 25.219 1.48 24.2056 1.48C24.1523 1.48 24.1256 1.4 24.1256 1.24C24.1256 1.08 24.1523 1 24.2056 1L26.2056 1.04C27.3256 1.09333 28.219 1.12 28.8856 1.12C29.899 1.12 30.899 1.08 31.8856 1C33.059 0.946666 33.8723 0.919999 34.3256 0.919999C37.099 0.919999 39.5523 1.45333 41.6856 2.52C43.819 3.58667 45.4723 5.04 46.6456 6.88C47.8456 8.72 48.4456 10.7867 48.4456 13.08C48.4456 15.6667 47.8323 17.96 46.6056 19.96C45.4056 21.9333 43.7656 23.4667 41.6856 24.56C39.6056 25.6267 37.339 26.16 34.8856 26.16ZM34.4856 25.56C36.619 25.56 38.5123 25.12 40.1656 24.24C41.819 23.3333 43.099 22.0133 44.0056 20.28C44.939 18.52 45.4056 16.4133 45.4056 13.96C45.4056 11.64 44.9656 9.53333 44.0856 7.64C43.2056 5.74667 41.9523 4.25333 40.3256 3.16C38.699 2.06666 36.819 1.52 34.6856 1.52C33.539 1.52 32.6456 1.58666 32.0056 1.72C31.3923 1.85333 30.939 2.12 30.6456 2.52C30.3523 2.92 30.2056 3.52 30.2056 4.32V22.32C30.2056 23.12 30.3123 23.7467 30.5256 24.2C30.7656 24.6533 31.1923 25 31.8056 25.24C32.4456 25.4533 33.339 25.56 34.4856 25.56ZM78.3131 25.52C78.4198 25.52 78.4731 25.6 78.4731 25.76C78.4731 25.92 78.4198 26 78.3131 26C77.8065 26 77.0198 25.9733 75.9531 25.92C74.8865 25.8667 74.1131 25.84 73.6331 25.84C73.0465 25.84 72.2998 25.8667 71.3931 25.92C70.5398 25.9733 69.8865 26 69.4331 26C69.3265 26 69.2731 25.92 69.2731 25.76C69.2731 25.6 69.3265 25.52 69.4331 25.52C70.4198 25.52 71.1398 25.4267 71.5931 25.24C72.0465 25.0533 72.2731 24.7333 72.2731 24.28C72.2731 23.9067 72.0998 23.3333 71.7531 22.56L67.1531 12.76H59.5931L56.1531 20.92C55.7798 21.8267 55.5931 22.5733 55.5931 23.16C55.5931 24.7333 56.8998 25.52 59.5131 25.52C59.6465 25.52 59.7131 25.6 59.7131 25.76C59.7131 25.92 59.6465 26 59.5131 26C59.0331 26 58.3398 25.9733 57.4331 25.92C56.4198 25.8667 55.5398 25.84 54.7931 25.84C54.0998 25.84 53.2998 25.8667 52.3931 25.92C51.5931 25.9733 50.9265 26 50.3931 26C50.2598 26 50.1931 25.92 50.1931 25.76C50.1931 25.6 50.2598 25.52 50.3931 25.52C51.1398 25.52 51.7665 25.3867 52.2731 25.12C52.8065 24.8267 53.2998 24.3333 53.7531 23.64C54.2331 22.92 54.7531 21.8933 55.3131 20.56L63.7531 0.64C63.8065 0.559999 63.8998 0.519999 64.0331 0.519999C64.1665 0.519999 64.2465 0.559999 64.2731 0.64L73.7131 20.52C74.6198 22.4933 75.3931 23.8267 76.0331 24.52C76.6731 25.1867 77.4331 25.52 78.3131 25.52ZM59.9531 11.92H66.7531L63.1531 4.32L59.9531 11.92Z" fill="#00C4B3"/>
<path d="M0.060936 30H78.4331V32H0.060936V30Z" fill="#00C4B3"/>
</svg>
