<svg width="444" height="725" fill="none" xmlns="http://www.w3.org/2000/svg"><path d="M55.958 143.172c.054-.011.098.063.132.224.034.16.024.246-.03.257-.908.193-1.633.334-2.173.42l-2.977.591-2.999.68c-.502.134-1.194.295-2.077.483-.08.017-.137-.055-.171-.215s-.011-.249.069-.266c1.123-.239 1.856-.535 2.2-.887.345-.353.426-.957.244-1.812l-.185-.674-4.328-16.223-4.145 21.126c-.03.118-.126.195-.286.229-.16.034-.28.003-.355-.093L24.63 129.879l2.757 14.546c.28 1.449.802 2.526 1.566 3.23.786.671 1.727.89 2.823.657.08-.017.137.055.171.215.034.161.011.249-.069.266-.722.154-1.286.26-1.693.318l-2.214.429-2.518.577c-.422.118-.994.253-1.716.407-.08.017-.137-.055-.172-.215-.034-.161-.01-.249.07-.266 1.096-.233 1.877-.832 2.342-1.798.466-.965.561-2.159.287-3.581l-3.168-16.68-.05-.032c-.744-.875-1.459-1.478-2.144-1.807a3.094 3.094 0 0 0-2.11-.265c-.08.018-.137-.054-.171-.215-.034-.16-.011-.249.069-.266l1.893-.36c.38-.053.864-.142 1.453-.267l2.116-.492c.235-.078.54-.157.914-.236.348-.074.64-.011.88.19.237.201.707.702 1.409 1.503l12.229 14.544 3.903-19.105c.08-.408.187-.696.319-.864.153-.2.377-.331.67-.394.241-.051.512-.095.811-.13.327-.042.69-.105 1.092-.19l2.357-.543c.369-.107.9-.234 1.596-.382.08-.017.137.055.171.216.035.16.011.249-.069.266-1.256.267-2.111.714-2.565 1.341-.453.628-.54 1.47-.259 2.528l4.833 18.003c.23.818.45 1.399.664 1.745.24.34.561.538.964.592.43.048 1.059-.016 1.887-.192ZM102.927 143.052c.137.002.204.085.201.249-.002.164-.072.245-.208.243a58.646 58.646 0 0 1-2.541-.12 64.831 64.831 0 0 0-2.581-.121c-.683-.01-1.517.005-2.502.045-.93.041-1.669.057-2.215.049-.11-.002-.163-.085-.16-.249.002-.164.058-.245.167-.243.71.011 1.217-.05 1.52-.182.33-.159.499-.43.504-.813.007-.465-.254-1.248-.785-2.349l-2.704-5.576-10.085-.151-1.653 3.543c-.367.787-.555 1.522-.566 2.206-.014.983.316 1.754.99 2.311.703.557 1.642.844 2.817.862.137.002.204.085.202.249-.003.164-.072.245-.209.243a40.484 40.484 0 0 1-2.13-.114 53.32 53.32 0 0 0-2.705-.123 51.007 51.007 0 0 0-2.666.043c-.93.04-1.682.056-2.256.048-.11-.002-.163-.085-.16-.249.002-.164.058-.245.167-.243.766.011 1.41-.129 1.934-.422.524-.32 1.052-.873 1.583-1.658.532-.812 1.164-2.005 1.899-3.58l9.188-19.421c.056-.082.18-.121.371-.118.219.003.341.046.367.129l9.947 20.323c.928 1.954 1.7 3.305 2.318 4.053.617.747 1.268 1.126 1.951 1.136Zm-20.84-10.358 8.938.134-4.575-9.418-4.362 9.284ZM136.908 147.043c-.201.823-.281 1.437-.239 1.841.042.404.233.718.572.942.366.23.974.448 1.824.656.08.019.1.109.061.268-.039.159-.098.229-.178.21a42.6 42.6 0 0 1-2.061-.546l-3.018-.778-2.957-.68a45.68 45.68 0 0 1-2.16-.485c-.054-.013-.061-.099-.022-.258s.085-.233.138-.22c.85.208 1.49.294 1.921.258.431-.035.758-.223.981-.562.257-.36.482-.938.677-1.734l4.5-18.442c.194-.797.257-1.4.189-1.811-.042-.404-.246-.721-.612-.951-.36-.257-.964-.489-1.814-.696-.053-.013-.06-.099-.021-.259.039-.159.085-.232.138-.219l2.141.565c1.208.351 2.184.617 2.928.799.823.2 1.852.423 3.086.668l2.041.456c.08.02.1.109.062.268-.039.16-.099.23-.178.21-.823-.201-1.454-.27-1.891-.208a1.347 1.347 0 0 0-1 .642c-.224.34-.433.908-.627 1.704l-4.481 18.362ZM181.151 167.67a47.118 47.118 0 0 1-2.732-1.504c-.379-.22-.856-.489-1.43-.807-.55-.306-1.18-.636-1.889-.991l-2.732-1.32a46.332 46.332 0 0 1-1.998-.954c-.049-.024-.037-.11.036-.256.074-.147.135-.208.184-.184.782.391 1.387.618 1.815.679.428.061.788-.049 1.082-.33.33-.293.678-.807 1.045-1.54l8.491-16.978c.367-.734.563-1.308.587-1.724.049-.403-.079-.757-.384-1.063-.269-.318-.783-.666-1.541-1.045-.073-.037-.073-.129 0-.275.074-.147.147-.202.22-.165l1.926 1.008c1.1.612 1.98 1.082 2.64 1.412 1.002.502 2.047.978 3.135 1.431a92.71 92.71 0 0 1 2.604 1.21c2.469 1.235 4.412 2.818 5.83 4.75 1.442 1.944 2.267 4.022 2.474 6.234.208 2.213-.214 4.37-1.265 6.473-1.186 2.371-2.788 4.198-4.805 5.482a12.553 12.553 0 0 1-6.509 2.016c-2.323.061-4.584-.459-6.784-1.559Zm.055-1.027c1.564.782 3.141 1.082 4.73.899 1.602-.208 3.123-.929 4.566-2.163 1.467-1.223 2.745-2.922 3.833-5.097 1.039-2.078 1.663-4.12 1.871-6.124.22-2.029-.012-3.826-.696-5.391-.685-1.565-1.797-2.732-3.337-3.503-1.516-.758-2.628-1.131-3.337-1.118-.709.012-1.302.495-1.779 1.448l-8.253 16.501c-.489.978-.581 1.803-.275 2.476.318.647 1.21 1.338 2.677 2.072ZM233.37 195.61c.035-.042.094-.028.179.041a.282.282 0 0 1 .106.194c.046.073.06.12.043.141-1.565 1.473-2.904 2.885-4.015 4.237-.138.169-.274.269-.407.302-.115.011-.268-.062-.458-.218l-13.998-11.509c-.063-.053-.043-.142.061-.269.104-.126.188-.164.252-.112.675.556 1.204.903 1.586 1.04.404.155.78.128 1.129-.081.366-.23.809-.661 1.33-1.295l12.056-14.663c.521-.633.85-1.141.988-1.523.137-.383.091-.757-.139-1.123-.213-.387-.646-.849-1.301-1.388-.063-.052-.043-.141.062-.268.104-.126.188-.164.251-.112l13.428 11.041c.211.174.238.356.082.546l-3.4 4.264c-.035.042-.124.021-.268-.062-.123-.065-.169-.138-.138-.219.669-1.502.845-2.879.529-4.13-.316-1.251-1.129-2.414-2.438-3.491l-.95-.781c-.633-.521-1.21-.765-1.732-.734-.521.032-1.016.332-1.485.902l-5.312 6.461 2.629 2.161c1.224 1.007 2.337 1.568 3.339 1.684 1.002.116 1.815-.206 2.44-.966.052-.063.131-.051.237.035.126.105.164.188.111.252l-2.375 2.824-1.218 1.546c-.548.752-.996 1.34-1.343 1.762-.035.042-.115.011-.242-.093s-.173-.177-.138-.219c.712-.866.93-1.819.653-2.86-.238-1.045-.979-2.08-2.225-3.104l-2.597-2.135-5.885 7.157c-.503.612-.76 1.162-.771 1.648-.011.487.237.938.744 1.355l1.045.859c1.647 1.354 3.244 2.101 4.792 2.242 1.548.14 3.135-.306 4.763-1.339ZM285.935 227.473c.033.044-.015.115-.145.216-.129.1-.211.129-.244.085-.669-.865-1.542-1.278-2.618-1.24-1.055.021-2.156.474-3.302 1.36l-16.606 12.842c-.065.05-.15.029-.255-.062-.088-.07-.128-.143-.118-.22l5.557-28.604-12.617 9.756c-1.146.886-1.87 1.826-2.173 2.82-.302.994-.127 1.913.525 2.756.033.044-.015.115-.144.216-.13.1-.212.129-.245.085a28.336 28.336 0 0 1-1.046-1.419l-1.322-1.777-1.588-1.986a36.751 36.751 0 0 1-1.261-1.564c-.05-.065-.01-.147.119-.248.13-.1.22-.118.27-.053.736.951 1.648 1.438 2.736 1.461 1.105.043 2.231-.378 3.377-1.264l13.719-10.609c.227-1.316.28-2.342.16-3.078-.082-.731-.332-1.367-.75-1.908-.033-.043.015-.115.145-.215.129-.1.211-.129.244-.086l1.021 1.388c.196.297.503.717.921 1.257l1.938 2.44c.256.286.551.645.886 1.078.133.173.191.336.171.489-.02.154-.086.447-.2.881-.213.752-.348 1.27-.404 1.556l-4.263 21.229 10.476-8.101c1.168-.903 1.903-1.852 2.205-2.846.303-.994.128-1.912-.524-2.756-.034-.043.014-.115.144-.215.13-.1.211-.129.245-.085l1.046 1.419c.492.726.922 1.326 1.289 1.802.335.432.825 1.021 1.47 1.766l1.161 1.434ZM294.799 268.752c.717 2.198.786 4.169.208 5.913-.566 1.769-1.692 3.044-3.379 3.825a6.48 6.48 0 0 1-4.014.504c-1.386-.262-2.694-.906-3.923-1.933-1.204-1.039-2.179-2.364-2.926-3.976a31.913 31.913 0 0 1-.992-2.433 58.638 58.638 0 0 0-.529-1.336 37.275 37.275 0 0 0-.738-1.692l-1.295-2.698a47.087 47.087 0 0 1-.968-1.992c-.035-.074.023-.146.171-.215.149-.069.241-.066.275.008.334.719.648 1.236.945 1.551.321.303.689.449 1.106.436.452.002 1.038-.164 1.757-.497l17.224-7.98c1.042-.483 1.644-.972 1.805-1.469.187-.508.033-1.295-.461-2.362-.023-.049.04-.108.188-.177.149-.069.235-.079.258-.029l.876 1.989c.479 1.163.874 2.08 1.184 2.75.322.694.692 1.396 1.111 2.106.14.236.337.597.592 1.081.254.485.468.913.64 1.285 1.046 2.257 1.447 4.195 1.203 5.814-.244 1.619-1.148 2.791-2.71 3.515-1.19.551-2.453.654-3.788.309-1.323-.321-2.597-1.086-3.82-2.297Zm8.038-7.52c-.333-.719-.736-1.135-1.21-1.247-.449-.123-1.132.028-2.05.453l-7.068 3.275.652 1.505c.598 1.29 1.541 2.058 2.83 2.304 1.289.246 2.69.019 4.203-.682 1.413-.655 2.336-1.459 2.768-2.412.457-.965.415-2.03-.125-3.196Zm-21.435 10.789c1.505 3.249 3.944 4.092 7.317 2.53 1.91-.885 3.21-2.045 3.901-3.479.691-1.435.605-3.082-.256-4.942a24.842 24.842 0 0 0-.971-1.9l-8.966 4.153c-.818.379-1.326.811-1.524 1.294-.173.472-.007 1.253.499 2.344ZM295.199 319.664c-.529-2.487-.426-4.828.309-7.024a12.589 12.589 0 0 1 3.778-5.498c1.783-1.469 3.851-2.453 6.204-2.953 2.754-.586 5.254-.39 7.502.585 2.274.97 4.135 2.432 5.585 4.388 1.455 1.982 2.424 4.109 2.907 6.382.54 2.539.413 4.9-.381 7.08-.767 2.176-2.018 3.978-3.754 5.409a13.29 13.29 0 0 1-5.884 2.886c-2.433.517-4.802.35-7.106-.502-2.305-.851-4.276-2.235-5.913-4.15-1.631-1.889-2.713-4.09-3.247-6.603Zm1.283 1.11c.319 1.497 1.031 2.743 2.136 3.738 1.138 1.015 2.607 1.681 4.407 1.997 1.826.31 3.903.218 6.229-.276 2.459-.523 4.572-1.363 6.338-2.521 1.793-1.163 3.086-2.57 3.881-4.22.795-1.65.991-3.424.588-5.322-.518-2.433-1.838-4.109-3.961-5.027-2.097-.923-4.789-1.036-8.078-.337-2.593.551-4.837 1.434-6.731 2.646-1.861 1.234-3.222 2.655-4.081 4.263-.855 1.635-1.097 3.321-.728 5.059ZM325.057 390.175c0 .055-.083.081-.247.079-.164-.003-.245-.031-.245-.086.016-1.011-.407-1.974-1.269-2.889-.834-.888-1.998-1.63-3.493-2.226l-20.138-7.887c-.109-.029-.161-.18-.157-.454.004-.273.061-.422.171-.448l11.188-5.081-11.048-4.307c-.109-.029-.161-.18-.157-.453.004-.274.061-.423.171-.449l22.334-10.122c.881-.397 1.515-.729 1.902-.997.386-.24.65-.523.791-.849.169-.298.257-.707.265-1.226.001-.082.084-.122.248-.119.164.002.245.044.244.126-.006.41-.024.697-.054.861a22.183 22.183 0 0 0-.114 2.13c-.027 1.831-.023 3.376.013 4.634.022.356.029.793.021 1.312-.001.082-.084.122-.248.12-.164-.003-.245-.045-.244-.127.01-.683-.051-1.176-.183-1.479-.132-.275-.376-.416-.732-.421-.464-.007-1.371.294-2.719.903l-15.771 7.144 6.726 2.684 9.702-4.406c.99-.45 1.721-.876 2.192-1.279.498-.403.751-.837.757-1.301.002-.082.084-.122.248-.119.164.002.246.044.244.126a6.272 6.272 0 0 1-.096.942c-.033.382-.054.915-.065 1.598a76.848 76.848 0 0 0 .024 3.896c.023.274.032.629.025 1.066-.001.082-.084.122-.248.12-.164-.003-.245-.045-.244-.127.006-.383-.044-.67-.151-.863-.079-.166-.242-.25-.488-.254-.465-.007-1.468.347-3.009 1.062l-3.84 1.747 2.731 1.066c1.549.625 2.72.943 3.513.955.792.012 1.194-.324 1.204-1.007.001-.082.084-.122.248-.12.164.003.245.045.244.127a3.224 3.224 0 0 1-.093.696c-.031.273-.055.928-.07 1.967-.007.465.012 1.025.057 1.682l.018 1.517c-.001.055-.083.081-.247.079-.164-.003-.246-.031-.245-.086.027-1.831-1.562-3.372-4.769-4.623l-4.036-1.577-10.446 4.764 14.065 5.5c.869.341 1.659.517 2.37.527.847.013 1.52-.196 2.019-.625.498-.403.752-.96.763-1.67.001-.082.084-.122.247-.12.164.003.246.045.245.127l-.07 1.885c-.069.983-.11 1.885-.122 2.705-.008.546.01 1.175.054 1.887l.014 1.763ZM297.081 427.121c.053.013.067.073.041.179a.286.286 0 0 1-.129.18c-.046.073-.082.106-.108.1-2.007-.771-3.86-1.364-5.559-1.779-.213-.052-.362-.131-.449-.236-.06-.099-.061-.268-.003-.507l4.296-17.606c.02-.079.109-.1.269-.061.159.039.229.098.209.178-.207.85-.29 1.477-.248 1.881.036.431.223.758.563.981.366.23.947.442 1.744.637l18.441 4.5c.797.195 1.397.271 1.802.229.404-.042.721-.246.951-.612.256-.36.485-.951.686-1.774.019-.08.109-.1.268-.061.159.039.229.098.21.178l-4.122 16.888c-.064.265-.216.369-.455.311l-5.317-1.213c-.053-.013-.074-.103-.061-.269.005-.139.051-.212.138-.219 1.643-.049 2.96-.487 3.95-1.315.99-.828 1.686-2.065 2.087-3.711l.292-1.195c.194-.796.164-1.423-.09-1.879-.255-.456-.74-.771-1.457-.946l-8.126-1.983-.807 3.306c-.376 1.54-.398 2.786-.068 3.739.33.953.973 1.546 1.929 1.779.08.02.103.096.071.229-.039.159-.098.229-.178.209l-3.575-.914-1.922-.427a40.293 40.293 0 0 1-2.17-.445c-.053-.013-.06-.099-.021-.259.039-.159.085-.232.138-.219 1.088.265 2.042.048 2.86-.653.838-.667 1.448-1.785 1.831-3.351l.797-3.266-9.002-2.197c-.77-.188-1.377-.181-1.82.02-.443.201-.742.621-.898 1.258l-.32 1.314c-.506 2.072-.486 3.835.059 5.29.545 1.456 1.636 2.693 3.273 3.711ZM268.977 476.513c-.025.049-.11.036-.257-.037-.146-.073-.208-.134-.183-.183l3.264-6.527c.269-.538 1.736-1.058 4.401-1.558 2.689-.489 6.302-.898 10.837-1.228.073-.208.201-.495.385-.862.477-.953.825-1.619 1.045-1.998l-8.104-4.053c-.758-.379-1.338-.593-1.742-.642a1.229 1.229 0 0 0-1.045.348c-.305.306-.654.85-1.045 1.632-.025.049-.11.037-.257-.037-.146-.073-.208-.134-.183-.183.403-.807.733-1.436.99-1.889l1.431-2.768 1.302-2.695c.22-.501.538-1.168.954-1.999.036-.073.128-.073.275 0 .146.074.201.147.165.22-.392.783-.612 1.375-.661 1.779-.061.428.049.788.33 1.082.294.33.807.678 1.54 1.045l16.978 8.491c.734.367 1.302.575 1.705.624.404.049.758-.08 1.064-.385.33-.293.685-.819 1.064-1.577.024-.049.11-.036.256.037.147.073.208.134.184.183l-1.009 1.925a72.838 72.838 0 0 0-1.412 2.641 35.906 35.906 0 0 0-1.192 2.658c-.135.33-.306.734-.514 1.21-.22.501-.477 1.045-.77 1.632-1.113 2.225-2.39 3.74-3.833 4.547-1.418.819-2.86.861-4.327.128-1.345-.673-2.384-1.651-3.117-2.934-.709-1.272-1.087-2.684-1.136-4.236-3.912.489-7.029.977-9.352 1.466-2.322.489-4.119 1.057-5.39 1.704-1.272.648-2.152 1.461-2.641 2.439Zm20.519-11.879c-.391.537-.795 1.222-1.21 2.053-.71 1.418-.826 2.628-.349 3.63.489 1.04 1.613 1.999 3.373 2.88 2.005 1.002 3.533 1.4 4.584 1.192 1.051-.208 1.852-.862 2.402-1.962.489-.978.654-1.766.496-2.365-.159-.599-.667-1.113-1.522-1.54l-7.774-3.888ZM212.693 536.638a46.261 46.261 0 0 1 2.54-1.809c.362-.246.812-.558 1.347-.938a49.498 49.498 0 0 0 1.712-1.272l2.375-1.888c.416-.356.991-.818 1.726-1.387.044-.033.115.015.216.145.1.129.128.211.085.244-.692.535-1.158.982-1.399 1.341-.24.359-.298.732-.172 1.118.121.425.433.961.934 1.61l11.613 15.017c.501.649.934 1.074 1.298 1.277.342.219.717.257 1.125.114.403-.104.94-.415 1.61-.934.065-.05.147-.01.248.12.1.129.118.219.053.269l-1.744 1.297a73.828 73.828 0 0 0-2.418 1.766 49.683 49.683 0 0 0-2.649 2.204 92.465 92.465 0 0 1-2.22 1.821c-2.184 1.689-4.454 2.753-6.809 3.192-2.377.456-4.608.297-6.691-.475-2.084-.773-3.844-2.09-5.282-3.949-1.622-2.098-2.574-4.333-2.855-6.708a12.552 12.552 0 0 1 1.008-6.739c.953-2.119 2.402-3.931 4.349-5.436Zm.901.495c-1.384 1.07-2.338 2.361-2.863 3.872-.507 1.533-.518 3.217-.032 5.053.465 1.852 1.441 3.74 2.929 5.664 1.422 1.838 2.99 3.286 4.706 4.343 1.733 1.079 3.452 1.649 5.159 1.712 1.707.062 3.241-.433 4.603-1.487 1.341-1.037 2.16-1.877 2.456-2.521.297-.644.119-1.388-.533-2.231l-11.286-14.595c-.669-.865-1.373-1.306-2.111-1.322-.721.005-1.731.509-3.028 1.512ZM164.862 571.563c.023.049-.016.097-.115.143a.282.282 0 0 1-.22.012c-.086.009-.135.002-.146-.023-.649-2.049-1.34-3.868-2.076-5.455-.092-.198-.123-.364-.095-.498.04-.109.172-.215.395-.318l16.443-7.618c.074-.035.146.023.215.171.069.149.066.241-.008.275-.794.368-1.335.694-1.625.979-.315.296-.454.647-.417 1.052.049.429.245 1.016.59 1.76l7.979 17.224c.345.744.66 1.261.945 1.551.285.29.642.41 1.071.362.441-.023 1.046-.213 1.815-.57.074-.034.146.023.215.172s.066.24-.008.275l-15.774 7.307c-.248.115-.424.061-.527-.162l-2.367-4.913c-.023-.05.035-.122.172-.215.112-.083.198-.092.258-.029 1.063 1.254 2.227 2.01 3.491 2.268 1.264.258 2.665.031 4.202-.682l1.116-.517c.745-.344 1.215-.758 1.413-1.242.198-.483.142-1.059-.168-1.729l-3.516-7.589-3.088 1.43c-1.438.667-2.427 1.426-2.966 2.278-.539.853-.602 1.725-.188 2.618.034.074-.011.14-.135.198-.148.069-.24.066-.274-.009l-1.514-3.365-.865-1.768a40.47 40.47 0 0 1-1.005-1.975c-.023-.049.04-.109.189-.178.149-.069.235-.078.258-.029.471 1.017 1.235 1.627 2.293 1.83 1.045.239 2.298.019 3.762-.658l3.05-1.414-3.895-8.407c-.333-.72-.716-1.19-1.15-1.41-.434-.221-.948-.194-1.543.082l-1.228.569c-1.935.896-3.301 2.011-4.099 3.345-.798 1.333-1.085 2.957-.86 4.872ZM113.347 605.098c-.054.011-.098-.063-.132-.224-.034-.16-.024-.246.029-.257 1.07-.228 1.821-.834 2.254-1.821.439-.959.508-2.148.206-3.565l-4.364-20.533c-.017-.08.038-.148.166-.203.102-.049.185-.053.25-.011l23.36 17.418-3.316-15.601c-.301-1.417-.834-2.477-1.598-3.181-.764-.704-1.668-.945-2.711-.723-.053.011-.097-.063-.131-.224-.034-.16-.024-.246.029-.257.749-.16 1.326-.268 1.733-.327l2.174-.42 2.478-.569a37.264 37.264 0 0 1 1.957-.458c.08-.017.137.055.171.216.034.16.011.249-.069.266-1.176.25-2.011.86-2.503 1.831-.519.977-.628 2.174-.326 3.591l3.605 16.964c1.087.774 1.988 1.268 2.704 1.479.694.243 1.376.294 2.044.152.054-.011.098.063.132.224.034.16.024.246-.029.257l-1.693.318c-.354.047-.864.142-1.533.284l-3.039.688c-.369.106-.82.216-1.355.33-.214.045-.386.026-.516-.058a8.62 8.62 0 0 1-.706-.563c-.585-.518-.994-.864-1.227-1.038l-17.277-13.052 2.754 12.953c.306 1.444.842 2.518 1.606 3.222.765.703 1.668.944 2.711.723.053-.012.097.063.131.223.034.161.025.247-.029.258l-1.733.326c-.867.129-1.594.256-2.182.381-.535.113-1.278.299-2.229.557l-1.796.424ZM77.814 605.548c3.252.048 5.62-2.035 7.105-6.25.028-.081.111-.121.248-.119.136.029.203.085.202.167a215.09 215.09 0 0 0-.432 4.217c-.163 1.747-.25 3.058-.264 3.933-.002.136-.071.204-.208.202-.164-.003-.245-.072-.243-.209.01-.601-.765-.914-2.323-.937-2.35-.117-5.095-.199-8.238-.246a168.9 168.9 0 0 0-5.126.005l-2.788-.001c-1.039-.015-1.791.042-2.258.172-.494.129-.812.398-.955.805-.03.109-.112.163-.249.161-.164-.003-.245-.059-.243-.168.094-.819.21-2.129.346-3.931.109-1.803.171-3.251.188-4.344.001-.082.07-.122.207-.12.136.002.218.044.244.127.378 2.11 1.12 3.693 2.225 4.749 1.105 1.082 2.477 1.636 4.117 1.66.792.012 1.328-.157 1.606-.509.251-.324.384-.964.398-1.921l.283-18.899c.012-.847-.06-1.463-.219-1.848-.158-.385-.468-.65-.93-.793-.463-.144-1.2-.223-2.211-.238-.082-.002-.122-.084-.12-.248.003-.164.045-.245.127-.244.984.014 1.763.04 2.336.076l3.402.092 3.321.008a54.54 54.54 0 0 1 2.379-.005c.082.001.121.084.119.248-.002.164-.045.245-.127.244-.984-.015-1.709.043-2.175.172-.495.13-.826.384-.996.764-.197.408-.302 1.021-.315 1.841l-.284 18.981c-.013.929.1 1.56.341 1.891.241.332.744.503 1.51.515ZM10.893 570.705c-.133-.032-.18-.128-.141-.287.039-.159.124-.223.257-.191.531.13 1.348.358 2.45.683 1.156.338 1.986.569 2.49.692.664.162 1.48.333 2.45.513.915.167 1.639.316 2.17.445.106.026.14.119.1.278-.038.16-.11.226-.217.2-.69-.168-1.198-.222-1.522-.16-.358.081-.582.308-.673.68-.11.451-.029 1.273.243 2.465l1.396 6.038 9.799 2.391 2.399-3.086c.533-.686.88-1.361 1.042-2.025.234-.956.083-1.78-.451-2.473-.56-.7-1.412-1.189-2.554-1.468-.133-.032-.18-.128-.14-.287.038-.16.124-.223.257-.191.478.117 1.162.312 2.051.585.996.3 1.866.54 2.61.722.717.175 1.586.359 2.608.552.916.167 1.653.319 2.21.455.107.026.14.118.102.278-.04.159-.112.226-.218.2-.744-.182-1.403-.188-1.98-.019-.581.196-1.219.617-1.911 1.264-.7.673-1.582 1.696-2.648 3.067l-13.28 16.891c-.073.066-.202.077-.388.032-.212-.052-.322-.121-.329-.207L13.9 576.715c-.47-2.112-.922-3.602-1.358-4.468-.436-.866-.986-1.38-1.65-1.542Zm18.012 14.736-8.684-2.119 2.365 10.199 6.319-8.08Z" fill="#E4E4E4"/></svg>