<svg width="157" height="39" viewBox="0 0 157 39" fill="none" xmlns="http://www.w3.org/2000/svg">
<g clip-path="url(#clip0_55_335)">
<path d="M40.8645 9.6852H42.9692L43.5231 10.7473C44.4093 10.1144 45.1238 9.53662 46.6248 9.53662C47.9042 9.53662 48.807 10.0209 49.2224 10.8243C50.2421 10.0081 51.5077 9.55475 52.817 9.53662C55.0325 9.53662 55.7913 11.0279 55.7913 13.0255V19.5907H53.1272V12.987C53.1272 12.0515 52.6952 11.6443 52.0194 11.6443C51.1327 11.5828 50.2561 11.8626 49.5713 12.4257C49.5713 12.5028 49.5713 12.91 49.5713 13.0035V19.6072H46.9571V13.0035C46.9571 12.068 46.5029 11.6608 45.8493 11.6608C44.9852 11.6324 44.143 11.9337 43.4954 12.5028V19.5907H40.8645V9.6852Z" fill="#706F6F"/>
<path d="M57.3976 16.1403C57.3976 14.6874 58.1896 13.3887 60.3331 13.3887H63.2686C63.2686 13.3887 63.2686 12.7724 63.2686 12.7559C63.2686 11.6938 62.759 11.5452 61.9338 11.5452C61.1085 11.5452 58.5496 11.6938 57.741 11.7488V10.0979C59.203 9.5944 60.7481 9.37216 62.2938 9.44306C64.4373 9.44306 65.905 10.1695 65.905 12.6348V19.5907H63.8169L63.2631 18.49C62.4299 19.2466 61.3454 19.6717 60.2168 19.6842C58.3004 19.6292 57.3976 18.3415 57.3976 17.0538V16.1182V16.1403ZM60.97 17.6096C61.7869 17.5379 62.5739 17.2697 63.2631 16.8281V15.0231L60.8371 15.2102C60.7146 15.2162 60.5948 15.248 60.4856 15.3035C60.3764 15.359 60.2804 15.437 60.2039 15.5323C60.1274 15.6276 60.0722 15.7379 60.0419 15.856C60.0117 15.9741 60.0071 16.0973 60.0285 16.2173V16.7016C60.0044 16.8285 60.0123 16.9593 60.0516 17.0825C60.0909 17.2056 60.1603 17.3171 60.2536 17.4071C60.3469 17.497 60.4611 17.5626 60.5862 17.5979C60.7112 17.6333 60.8431 17.6373 60.97 17.6096Z" fill="#706F6F"/>
<path d="M67.6829 6.56507C67.6736 6.50218 67.6786 6.43801 67.6976 6.37732C67.7167 6.31662 67.7492 6.26096 67.7928 6.21445C67.8364 6.16795 67.89 6.13178 67.9496 6.10865C68.0092 6.08551 68.0733 6.076 68.1371 6.0808H70.1144C70.175 6.08175 70.2347 6.09551 70.2895 6.12117C70.3443 6.14683 70.393 6.18381 70.4323 6.22963C70.4716 6.27545 70.5006 6.32907 70.5174 6.38691C70.5342 6.44475 70.5384 6.50548 70.5298 6.56507V8.21598C70.5376 8.27273 70.5323 8.3305 70.5145 8.38496C70.4966 8.43942 70.4666 8.48916 70.4266 8.53045C70.3866 8.57173 70.3378 8.60351 70.2837 8.62338C70.2297 8.64326 70.1718 8.65072 70.1144 8.64522H68.126C68.067 8.64988 68.0078 8.64215 67.952 8.62253C67.8963 8.60291 67.8453 8.57184 67.8025 8.53134C67.7596 8.49084 67.7258 8.44183 67.7033 8.38749C67.6808 8.33315 67.6701 8.27471 67.6718 8.21598V6.56507H67.6829ZM67.7771 9.67979H70.4079V19.5852H67.7771V9.67979Z" fill="#706F6F"/>
<path d="M75.5811 9.53666C76.6245 9.55523 77.6539 9.77775 78.6108 10.1915V4.95264H81.2472V19.5907H79.0649L78.6108 18.5837C77.7398 19.2531 76.6813 19.6376 75.5811 19.6843C73.133 19.6843 72.3243 17.7417 72.3243 14.6655C72.3299 11.5123 72.8173 9.53666 75.5811 9.53666ZM76.279 17.4665C77.097 17.4901 77.9052 17.2841 78.6108 16.8722V11.9635C77.8636 11.6959 77.0729 11.569 76.279 11.5893C75.4316 11.5893 74.9608 12.0571 74.9608 14.594C74.9608 16.7952 75.4149 17.4665 76.279 17.4665Z" fill="#706F6F"/>
<path d="M87.5115 9.6084C90.4082 9.6084 91.7431 9.92757 91.7431 13.2074C91.7431 14.9794 90.7627 15.7058 88.9737 15.7058H85.7945C85.7945 17.4777 86.4702 17.5933 87.8992 17.5933C89.1251 17.6404 90.3528 17.5722 91.5658 17.3897V19.1617C90.1535 19.6845 88.01 19.6845 86.4481 19.6845C83.9113 19.6845 83.1581 18.2317 83.1581 14.5886C83.1636 10.3348 84.3655 9.6084 87.5115 9.6084ZM88.2814 13.8237C88.3876 13.8416 88.4965 13.8352 88.5998 13.805C88.7031 13.7748 88.7982 13.7216 88.8777 13.6495C88.9573 13.5773 89.0192 13.4881 89.0589 13.3887C89.0986 13.2892 89.1149 13.182 89.1066 13.0753C89.1066 11.8261 88.9183 11.6005 87.661 11.6005C86.2708 11.6005 85.7613 11.6775 85.7779 13.8017H88.2814V13.8237Z" fill="#706F6F"/>
<path d="M93.5653 9.68524H95.67L96.2238 10.7473C97.0713 10.131 97.8855 9.51465 99.3864 9.51465C101.718 9.51465 102.377 11.0995 102.377 12.9871V19.5907H99.6966V12.9485C99.6966 11.98 99.2424 11.6058 98.5889 11.6058C97.7056 11.5801 96.8451 11.8867 96.1795 12.4643V19.6182H93.5486V9.71276L93.5653 9.68524Z" fill="#706F6F"/>
<path d="M104.283 4.95264H106.897V10.197C107.853 9.78145 108.883 9.55885 109.927 9.54217C112.696 9.54217 113.183 11.6113 113.183 14.693C113.183 17.7747 112.391 19.7118 109.927 19.7118C108.833 19.6679 107.78 19.2828 106.919 18.6112L106.448 19.6182H104.283V4.95264ZM109.267 17.472C110.115 17.472 110.564 16.8007 110.564 14.5995C110.564 12.0626 110.093 11.5948 109.267 11.5948C108.473 11.5714 107.682 11.6984 106.936 11.969V16.8777C107.636 17.2869 108.439 17.4911 109.251 17.4665L109.267 17.472Z" fill="#706F6F"/>
<path d="M119.52 9.5918C122.959 9.5918 124.072 10.841 124.072 14.7812C124.072 18.4572 123.02 19.6899 119.52 19.6899C116.019 19.6899 114.967 18.3306 114.967 14.7812C114.967 10.7309 116.152 9.5918 119.52 9.5918ZM119.52 17.5767C121.004 17.5767 121.436 17.3896 121.436 14.7757C121.436 11.9966 121.098 11.6774 119.52 11.6774C117.941 11.6774 117.603 11.9966 117.603 14.7757C117.598 17.3346 118.124 17.5767 119.52 17.5767Z" fill="#706F6F"/>
<path d="M127.324 9.68523L129.318 16.509L131.107 9.65771H133.737L133.04 12.3267L134.701 16.509L136.679 9.65771H139.498L136.252 19.5907H133.317L131.821 16.0082L130.713 19.5907H127.722L124.527 9.68523H127.346H127.324Z" fill="#706F6F"/>
<path d="M144.361 9.6084C147.257 9.6084 148.592 9.92757 148.592 13.2074C148.592 14.9794 147.612 15.7058 145.823 15.7058H142.644C142.644 17.4777 143.319 17.5933 144.748 17.5933C145.974 17.6404 147.202 17.5722 148.415 17.3897V19.1617C147.003 19.6845 144.859 19.6845 143.297 19.6845C140.761 19.6845 140.007 18.2317 140.007 14.5886C139.996 10.3348 141.204 9.6084 144.361 9.6084ZM145.114 13.8292C145.22 13.8471 145.329 13.8407 145.432 13.8105C145.536 13.7803 145.631 13.7271 145.71 13.655C145.79 13.5828 145.852 13.4936 145.891 13.3942C145.931 13.2947 145.947 13.1875 145.939 13.0808C145.939 11.8316 145.751 11.606 144.494 11.606C143.103 11.606 142.594 11.683 142.61 13.8072H145.114V13.8292Z" fill="#706F6F"/>
<path d="M150.398 9.68558H152.613L153.029 10.9348C153.391 10.5327 153.83 10.2067 154.321 9.97608C154.812 9.74546 155.344 9.61488 155.887 9.59203C156.26 9.56404 156.635 9.60129 156.994 9.70209V12.2225C156.729 12.2225 156.13 12.1674 155.543 12.1674C154.436 12.1674 153.66 12.3546 153.023 13.2681V19.591H150.392V9.68558H150.398Z" fill="#706F6F"/>
<path d="M40.8147 22.9146H43.152C45.1404 22.9146 45.4451 24.8351 45.4451 26.1448C45.4451 27.5976 44.8247 29.3256 43.152 29.3256H40.8147V22.9146ZM43.152 28.8083C44.4259 28.8083 44.9466 27.4711 44.9466 26.1393C44.9466 24.2023 44.2764 23.4153 43.152 23.4153H41.3187V28.8083H43.1576H43.152Z" fill="#00C4B3"/>
<path d="M49.4329 24.0538C49.4108 23.9025 49.4239 23.7481 49.4712 23.6026C49.5185 23.4571 49.5987 23.3243 49.7056 23.2143C49.8125 23.1044 49.9434 23.0202 50.0881 22.9682C50.2329 22.9163 50.3877 22.898 50.5406 22.9147L53.2657 23.0358V23.41H50.5406C50.4553 23.4002 50.3689 23.4104 50.2882 23.4395C50.2075 23.4687 50.1347 23.5161 50.0756 23.578C50.0165 23.6399 49.9727 23.7146 49.9477 23.7963C49.9227 23.8779 49.9171 23.9642 49.9314 24.0483V25.8643L52.9167 25.9359V26.3211L49.9314 26.4146V28.2526C49.9188 28.3431 49.9291 28.4352 49.9612 28.5208C49.9934 28.6063 50.0465 28.6825 50.1158 28.7426C50.185 28.8026 50.2682 28.8446 50.3578 28.8648C50.4475 28.8849 50.5408 28.8826 50.6293 28.858H53.2712V29.2212L50.6293 29.3532C50.0477 29.3532 49.4274 29.2377 49.4274 28.2526V24.0538H49.4329Z" fill="#00C4B3"/>
<path d="M57.4363 22.9146H57.9459L61.5405 28.3901V22.9146H62.0335V29.3256H61.5294L57.9293 23.8501V29.3256H57.4363V22.9146Z" fill="#00C4B3"/>
<path d="M65.9549 22.9146H70.4634V23.4153H68.4307V29.3256H67.9267V23.4153H65.9493V22.9146H65.9549Z" fill="#00C4B3"/>
<path d="M75.498 22.9146H76.0519L78.3283 29.3256H77.7357L77.0987 27.3885H74.3847L73.7146 29.3256H73.1108L75.498 22.9146ZM76.9104 26.8877L75.7639 23.663L74.5731 26.9098H76.9104V26.8877Z" fill="#00C4B3"/>
<path d="M82.2996 22.9146H82.8036V28.2195C82.791 28.3099 82.8013 28.4021 82.8335 28.4876C82.8656 28.5731 82.9187 28.6494 82.988 28.7094C83.0572 28.7695 83.1404 28.8115 83.23 28.8316C83.3197 28.8517 83.413 28.8494 83.5015 28.8248H86.1047V29.3256H83.5015C82.9199 29.3256 82.2996 29.21 82.2996 28.225V22.9146Z" fill="#00C4B3"/>
<path d="M95.2213 22.9146H97.8079C98.5058 22.9146 99.3532 23.1677 99.3532 24.7361C99.3532 26.5466 98.4615 26.6456 97.8079 26.6456C97.4534 26.6456 95.7696 26.5245 95.7253 26.497V29.3256H95.2213V22.9146ZM97.8079 26.1393C98.3618 26.1393 98.8492 25.9797 98.8381 24.7361C98.827 23.4924 98.2399 23.4208 97.8079 23.4208H95.7253V26.1338H97.8079V26.1393Z" fill="#00C4B3"/>
<path d="M103.319 22.9146H105.966C106.753 22.9146 107.479 23.2888 107.479 24.7801C107.479 26.431 106.642 26.5906 106.26 26.6181L107.645 29.3256H107.091L105.712 26.6346C105.551 26.6346 103.834 26.53 103.812 26.519V29.3201H103.308V22.9146H103.319ZM105.966 26.1008C106.47 26.1008 106.963 26.0293 106.963 24.7801C106.963 23.5309 106.454 23.4208 105.966 23.4208H103.823V26.1008H105.966Z" fill="#00C4B3"/>
<path d="M113.693 22.9146H114.247L116.523 29.3256H115.931L115.294 27.3885H112.591L111.882 29.3256H111.272L113.693 22.9146ZM115.105 26.8877L113.953 23.663L112.762 26.9098H115.1L115.105 26.8877Z" fill="#00C4B3"/>
<path d="M122.034 22.8433C122.727 22.8684 123.418 22.9419 124.1 23.0634V23.4376C124.1 23.4376 122.848 23.3385 122.034 23.3385C120.871 23.3385 120.373 23.8888 120.373 26.0901C120.373 27.741 120.799 28.8416 122.034 28.8416C122.959 28.8416 124.1 28.7645 124.1 28.7645V29.1662C123.417 29.2797 122.727 29.3441 122.034 29.3589C120.4 29.3589 119.88 27.9666 119.88 26.057C119.88 24.0594 120.267 22.8433 122.034 22.8433Z" fill="#00C4B3"/>
<path d="M127.778 22.9146H132.286V23.4153H130.254V29.3256H129.75V23.4153H127.778V22.9146Z" fill="#00C4B3"/>
<path d="M136.302 22.9146H136.806V29.3256H136.302V22.9146Z" fill="#00C4B3"/>
<path d="M142.998 22.8433C143.691 22.8684 144.382 22.9419 145.064 23.0634V23.4376C145.064 23.4376 143.812 23.3385 142.998 23.3385C141.835 23.3385 141.337 23.8888 141.337 26.0901C141.337 27.741 141.763 28.8416 142.998 28.8416C143.923 28.8416 145.064 28.7645 145.064 28.7645V29.1662C144.381 29.2797 143.691 29.3441 142.998 29.3589C141.364 29.3589 140.844 27.9666 140.844 26.057C140.849 24.0594 141.237 22.8433 142.998 22.8433Z" fill="#00C4B3"/>
<path d="M149.135 24.0538C149.113 23.9025 149.126 23.7481 149.173 23.6026C149.221 23.4571 149.301 23.3243 149.408 23.2143C149.515 23.1044 149.646 23.0202 149.79 22.9682C149.935 22.9163 150.09 22.898 150.243 22.9147L152.968 23.0358V23.41H150.243C150.157 23.4002 150.071 23.4104 149.99 23.4395C149.91 23.4687 149.837 23.5161 149.778 23.578C149.719 23.6399 149.675 23.7146 149.65 23.7963C149.625 23.8779 149.619 23.9642 149.634 24.0483V25.8643L152.619 25.9359V26.3211L149.634 26.3926V28.2306C149.621 28.3211 149.631 28.4132 149.663 28.4987C149.696 28.5843 149.749 28.6605 149.818 28.7205C149.887 28.7806 149.97 28.8226 150.06 28.8427C150.15 28.8629 150.243 28.8606 150.331 28.8359H152.973V29.2212L150.331 29.3532C149.75 29.3532 149.13 29.2377 149.13 28.2526V24.0538H149.135Z" fill="#00C4B3"/>
<path d="M35.7911 1.13913C35.6988 1.19779 35.6237 1.27948 35.5731 1.37605C35.5226 1.47262 35.4984 1.58068 35.5031 1.68943V10.7584C33.2733 9.92182 30.9306 9.41922 28.552 9.26711H28.5133H28.192H28.0369H27.6215C27.1795 9.28601 26.7401 9.34495 26.3089 9.4432C23.9826 9.89996 21.3905 11.0941 20.604 11.6994L20.0501 9.7954C20.0229 9.70529 19.9673 9.62621 19.8916 9.56976C19.8158 9.51331 19.7239 9.48246 19.6292 9.48173H18.4827V39L20.2772 37.8609C20.3695 37.8022 20.4447 37.7205 20.4952 37.6239C20.5457 37.5274 20.5699 37.4193 20.5652 37.3106V28.2416C22.7977 29.0731 25.1422 29.5701 27.5218 29.7164H27.5551H27.8763H28.0314H28.4468C28.8888 29.6975 29.3282 29.6386 29.7595 29.5403C32.0857 29.0835 34.6778 27.8894 35.4643 27.284L36.0182 29.1881C36.0454 29.2782 36.101 29.3573 36.1767 29.4137C36.2525 29.4702 36.3444 29.501 36.4391 29.5018H37.5856V0L35.7911 1.13913ZM28.0369 27.6032H27.9317C25.2565 27.5427 23.4453 25.0938 23.4453 19.6348C23.4453 12.9046 25.3396 11.3803 28.0314 11.3803H28.1366C30.8118 11.4408 32.623 13.8897 32.623 19.3487C32.623 26.1009 30.7287 27.6032 28.0369 27.6032Z" fill="#00C4B3"/>
<path d="M22.9912 0C19.9494 0.0814894 17.0126 1.12221 14.6056 2.97164C12.1985 1.12221 9.2617 0.0814894 6.21997 0C2.54227 0 1.09676e-05 2.75152 1.09676e-05 6.43305V19.2606C-0.00350256 19.3704 0.0223227 19.4792 0.0748589 19.5758C0.127395 19.6725 0.204767 19.7536 0.299101 19.8109L2.1601 20.9115V6.43305C2.1601 3.95118 3.75525 2.14068 6.21997 2.14068C7.8754 2.11766 9.52127 2.39362 11.0774 2.95513C11.5523 3.15232 12.0007 3.40742 12.4122 3.71455L12.6393 3.93467L12.739 4.01721C13.1614 4.47362 13.4866 5.01015 13.6951 5.59457C13.9035 6.179 13.9909 6.79926 13.952 7.41809L13.7083 13.0972C13.7076 13.1222 13.7119 13.1472 13.721 13.1705C13.7301 13.1939 13.7439 13.2151 13.7615 13.2331C13.779 13.2511 13.8 13.2653 13.8232 13.2751C13.8465 13.2848 13.8714 13.2898 13.8966 13.2898H15.309C15.3351 13.2914 15.3613 13.2875 15.3858 13.2784C15.4103 13.2694 15.4327 13.2553 15.4514 13.2372C15.4702 13.2191 15.4849 13.1973 15.4947 13.1732C15.5045 13.1491 15.5092 13.1232 15.5084 13.0972L15.2647 7.41809C15.2261 6.80443 15.3116 6.18931 15.5162 5.609C15.7207 5.0287 16.0401 4.49495 16.4555 4.03923C16.4954 4.00568 16.5325 3.96886 16.5663 3.92917L16.6161 3.85212L16.6493 3.81911C17.0981 3.45792 17.5984 3.1649 18.1337 2.94963C19.4464 2.27826 21.0637 2.08015 22.9635 2.15719C25.4282 2.25074 27.0233 3.96218 27.0233 6.44956V20.9115L28.8843 19.7724C28.9787 19.7151 29.056 19.634 29.1086 19.5373C29.1611 19.4407 29.1869 19.3319 29.1834 19.2221V5.77268C29.2111 2.75152 26.6689 0 22.9912 0Z" fill="#706F6F"/>
</g>
<defs>
<clipPath id="clip0_55_335">
<rect width="157" height="39" fill="white"/>
</clipPath>
</defs>
</svg>
