<svg width="565" height="565" fill="none" xmlns="http://www.w3.org/2000/svg"><path d="M384.044 86.94c.05.02.045.106-.017.258-.061.152-.117.218-.168.198a46.788 46.788 0 0 1-2.037-.868l-2.798-1.174-2.866-1.114a42.656 42.656 0 0 1-1.992-.76c-.076-.032-.084-.123-.022-.275.061-.152.13-.213.206-.182 1.064.43 1.838.595 2.32.495.483-.1.888-.555 1.216-1.366l.223-.662 5.483-15.87-15.249 15.197c-.092.08-.214.09-.366.03-.152-.062-.233-.154-.242-.276l-2.23-22.17-5.849 13.6c-.578 1.358-.747 2.543-.507 3.554.275.995.933 1.703 1.972 2.123.076.03.083.122.022.274-.062.152-.13.213-.206.182a27.5 27.5 0 0 1-1.582-.683l-2.075-.883-2.41-.93a29.46 29.46 0 0 1-1.65-.622c-.076-.03-.084-.122-.022-.274.061-.152.13-.213.206-.182 1.039.42 2.021.36 2.947-.18.926-.54 1.672-1.476 2.24-2.81l6.701-15.599-.023-.053c-.128-1.143-.383-2.042-.767-2.698a3.098 3.098 0 0 0-1.601-1.4c-.076-.03-.084-.121-.022-.273.061-.152.13-.213.206-.182l1.771.76c.345.168.796.365 1.353.59l2.031.777c.238.066.534.172.889.315.33.133.537.35.622.65.086.299.195.977.328 2.033l2.006 18.896 13.919-13.656c.295-.293.545-.473.748-.538.239-.08.498-.064.776.048.228.093.477.208.745.346.294.148.631.299 1.011.452l2.258.869c.366.118.878.31 1.536.576.076.03.084.122.022.274-.061.152-.13.213-.206.182-1.191-.481-2.15-.589-2.877-.322-.726.266-1.269.917-1.628 1.951l-6.061 17.627c-.266.806-.408 1.412-.425 1.818.009.417.165.76.469 1.03.329.28.886.579 1.672.896ZM423.049 113.104c.112.078.122.185.028.319-.094.135-.197.163-.309.085a59.388 59.388 0 0 1-2.039-1.52 65.08 65.08 0 0 0-2.073-1.544c-.56-.39-1.26-.844-2.099-1.362a38.624 38.624 0 0 1-1.863-1.198c-.09-.062-.088-.161.006-.295.093-.135.185-.171.275-.109.583.407 1.037.64 1.362.699.363.053.653-.077.872-.391.266-.382.487-1.177.663-2.387l.876-6.135-8.277-5.765-3.35 2.013c-.745.448-1.313.952-1.703 1.513-.563.807-.72 1.63-.471 2.47.27.854.888 1.618 1.852 2.289.113.078.122.185.028.319-.094.135-.197.163-.309.085-.404-.281-.971-.71-1.702-1.286a52.77 52.77 0 0 0-2.174-1.614 51.767 51.767 0 0 0-2.234-1.456 40.057 40.057 0 0 1-1.897-1.221c-.09-.063-.088-.161.006-.296.094-.134.185-.17.275-.108.628.438 1.241.681 1.839.731.614.028 1.36-.135 2.239-.489.895-.375 2.087-1.01 3.576-1.906l18.479-10.963c.091-.036.216 0 .373.11.179.125.257.23.232.312l-3.118 22.411c-.324 2.139-.439 3.691-.345 4.656.094.965.422 1.643.982 2.033Zm-11.484-20.24 7.334 5.108 1.474-10.365-8.808 5.257ZM448.989 135.415c-.627.57-1.036 1.035-1.227 1.393a1.228 1.228 0 0 0-.052 1.101c.174.395.556.916 1.145 1.563.055.061.022.146-.1.257-.121.11-.209.135-.264.074a43.136 43.136 0 0 1-1.405-1.605l-2.066-2.333-2.071-2.216a47.045 47.045 0 0 1-1.52-1.611c-.037-.04.005-.116.126-.226.122-.11.201-.145.238-.105.588.647 1.071 1.076 1.448 1.288.377.211.753.239 1.128.082.413-.154.924-.507 1.53-1.059l14.044-12.772c.606-.552.996-1.017 1.169-1.396.191-.359.199-.736.024-1.131-.154-.414-.526-.944-1.114-1.591-.037-.04.005-.116.127-.226.121-.111.2-.145.237-.105l1.459 1.665a73.438 73.438 0 0 0 1.981 2.3c.57.627 1.298 1.387 2.185 2.281l1.437 1.519c.055.061.022.146-.099.256-.122.111-.21.136-.265.075-.57-.627-1.054-1.037-1.451-1.23a1.35 1.35 0 0 0-1.189-.027c-.375.156-.866.51-1.472 1.062l-13.983 12.717ZM474.134 177.255a46.523 46.523 0 0 1-1.424-2.774 76.978 76.978 0 0 0-.735-1.469 49.698 49.698 0 0 0-1.011-1.877l-1.527-2.622a46.49 46.49 0 0 1-1.123-1.909c-.027-.047.031-.111.174-.192.142-.08.227-.097.254-.049.43.761.805 1.287 1.126 1.577.32.29.68.401 1.081.332.438-.059 1.014-.29 1.728-.692l16.533-9.328c.715-.402 1.198-.769 1.451-1.1.266-.307.358-.673.275-1.097-.045-.414-.276-.99-.692-1.728-.04-.071.011-.147.154-.228.143-.081.234-.085.275-.014l1.032 1.913a71.975 71.975 0 0 0 1.399 2.647c.55.976 1.15 1.956 1.799 2.939a91.831 91.831 0 0 1 1.482 2.46c1.356 2.404 2.082 4.803 2.177 7.198.109 2.418-.369 4.602-1.435 6.552-1.065 1.95-2.621 3.503-4.668 4.658-2.31 1.303-4.659 1.922-7.049 1.858a12.556 12.556 0 0 1-6.524-1.969c-1.96-1.248-3.544-2.943-4.752-5.086Zm.62-.82c.859 1.523 1.999 2.653 3.419 3.39 1.443.724 3.108.977 4.995.76 1.899-.193 3.908-.887 6.027-2.082 2.024-1.142 3.682-2.485 4.976-4.031 1.317-1.559 2.129-3.178 2.437-4.858.308-1.68.038-3.27-.808-4.77-.832-1.476-1.546-2.407-2.14-2.794-.595-.386-1.357-.317-2.285.207l-16.069 9.065c-.953.537-1.49 1.17-1.613 1.898-.099.715.255 1.786 1.061 3.215ZM501.801 229.62c.053-.016.095.029.126.134a.284.284 0 0 1-.02.22c-.003.086-.018.133-.044.141-2.121.346-4.02.769-5.697 1.267-.21.063-.378.07-.507.023-.102-.055-.188-.201-.258-.437l-5.168-17.369c-.024-.079.043-.141.2-.188.157-.047.248-.031.271.048.25.838.494 1.421.735 1.749.247.354.574.542.98.564.432.014 1.041-.096 1.827-.33l18.194-5.414c.786-.234 1.343-.471 1.671-.711.328-.24.499-.576.513-1.008.04-.44-.061-1.066-.302-1.878-.024-.079.043-.141.2-.188.158-.047.248-.031.271.048l4.958 16.662c.078.261-.001.428-.236.498l-5.204 1.634c-.052.015-.115-.052-.188-.201-.065-.123-.062-.21.009-.259 1.395-.872 2.311-1.914 2.748-3.128.437-1.214.414-2.633-.069-4.257l-.351-1.179c-.234-.786-.576-1.312-1.025-1.577-.45-.266-1.029-.293-1.736-.082l-8.016 2.385.97 3.262c.452 1.519 1.061 2.607 1.827 3.263.765.656 1.62.844 2.563.564.079-.024.137.03.176.161.047.157.031.247-.047.271l-3.549 1.013-1.874.601a40.51 40.51 0 0 1-2.099.71c-.053.015-.102-.056-.149-.213s-.044-.243.009-.259c1.074-.32 1.787-.988 2.14-2.006.387-.999.351-2.272-.109-3.817l-.959-3.223-8.881 2.643c-.76.226-1.28.538-1.561.935-.281.398-.328.911-.141 1.539l.386 1.297c.608 2.044 1.514 3.556 2.719 4.538 1.205.982 2.771 1.5 4.697 1.554ZM527.562 285.429c.004.055-.076.087-.24.098-.164.011-.247-.011-.251-.066-.071-1.091-.563-1.922-1.476-2.492-.887-.573-2.053-.812-3.498-.718l-20.948 1.36c-.082.005-.141-.06-.177-.194-.035-.108-.026-.19.025-.249l20.602-20.606-15.915 1.033c-1.446.094-2.572.468-3.379 1.123-.806.655-1.175 1.514-1.106 2.578.004.055-.077.087-.24.098-.164.01-.247-.012-.251-.066a27.881 27.881 0 0 1-.073-1.762l-.103-2.212-.205-2.534a35.558 35.558 0 0 1-.171-2.002c-.006-.082.073-.128.237-.139.164-.01.248.025.254.107.077 1.2.561 2.114 1.451 2.741.892.654 2.06.934 3.506.84l17.306-1.123c.924-.964 1.542-1.785 1.854-2.462.341-.653.489-1.32.445-2.001-.003-.055.077-.088.24-.098.164-.011.248.011.251.066l.071 1.721c-.004.356.016.875.06 1.557l.243 3.107c.052.38.095.843.131 1.388.014.218-.03.386-.132.502a8.611 8.611 0 0 1-.658.618c-.598.504-.999.859-1.205 1.064l-15.406 15.216 13.216-.858c1.473-.095 2.612-.471 3.419-1.126.806-.655 1.175-1.514 1.106-2.578-.003-.054.077-.087.24-.098.164-.01.248.012.251.066l.073 1.762c.003.877.023 1.615.062 2.215.035.545.112 1.307.231 2.286l.16 1.838ZM511.828 324.608c-.635 2.223-1.68 3.896-3.134 5.019-1.458 1.149-3.105 1.576-4.94 1.281a6.477 6.477 0 0 1-3.61-1.827c-1.003-.992-1.727-2.257-2.171-3.796-.418-1.535-.485-3.179-.203-4.933.122-.756.301-1.613.539-2.571.087-.374.19-.841.309-1.404.113-.535.225-1.14.333-1.815l.435-2.961c.06-.544.164-1.275.312-2.193.013-.081.1-.108.262-.082.162.026.236.079.223.16-.126.783-.154 1.388-.084 1.814.097.431.321.758.673.98.374.254.953.444 1.735.57l18.742 3.017c1.134.182 1.906.113 2.318-.209.438-.317.751-1.055.938-2.216.008-.054.094-.068.256-.042.162.026.238.066.23.12l-.386 2.139a74.03 74.03 0 0 0-.557 2.942 24.009 24.009 0 0 0-.256 2.368c-.017.274-.055.683-.115 1.227-.06.544-.122 1.018-.187 1.423-.395 2.456-1.147 4.287-2.255 5.493-1.107 1.206-2.511 1.672-4.211 1.398-1.296-.208-2.4-.829-3.314-1.862-.917-1.006-1.545-2.353-1.882-4.04Zm10.869-1.739c.126-.783.024-1.353-.306-1.711-.303-.353-.954-.61-1.952-.771l-7.691-1.237-.302 1.612c-.225 1.403.127 2.568 1.058 3.493.931.925 2.219 1.52 3.865 1.785 1.539.247 2.753.096 3.645-.452.918-.545 1.479-1.451 1.683-2.719Zm-23.804-3.042c-.569 3.535.982 5.598 4.652 6.189 2.078.334 3.804.1 5.179-.703 1.375-.803 2.226-2.217 2.551-4.241.126-.783.212-1.489.258-2.118l-9.755-1.57c-.891-.143-1.553-.07-1.988.22-.407.294-.706 1.035-.897 2.223ZM483.689 367.039c.953-2.357 2.347-4.24 4.185-5.65a12.595 12.595 0 0 1 6.206-2.445c2.3-.221 4.565.119 6.795 1.021 2.61 1.054 4.574 2.614 5.892 4.679 1.343 2.076 2.068 4.33 2.177 6.761.098 2.457-.288 4.763-1.159 6.917-.972 2.408-2.398 4.293-4.275 5.657-1.853 1.374-3.898 2.169-6.137 2.385a13.3 13.3 0 0 1-6.492-.898c-2.306-.932-4.176-2.395-5.611-4.39-1.434-1.995-2.295-4.243-2.58-6.747-.296-2.478.037-4.908.999-7.29Zm.444 1.638c-.573 1.42-.68 2.851-.319 4.293.375 1.479 1.221 2.852 2.536 4.12 1.34 1.279 3.113 2.364 5.318 3.255 2.332.942 4.553 1.426 6.664 1.454 2.137.038 3.996-.405 5.578-1.328 1.582-.924 2.736-2.285 3.463-4.084.932-2.307.775-4.434-.472-6.382-1.222-1.938-3.391-3.537-6.509-4.796-2.458-.994-4.811-1.517-7.06-1.57-2.233-.018-4.155.399-5.767 1.251-1.623.878-2.766 2.14-3.432 3.787ZM469.014 442.193c-.031.045-.114.02-.249-.074-.134-.093-.186-.163-.155-.208.578-.829.766-1.864.564-3.104-.195-1.202-.746-2.469-1.651-3.799l-12.285-17.8c-.074-.085-.033-.239.123-.464.156-.224.287-.316.392-.276l12.117 2.044-6.751-9.748c-.074-.085-.033-.24.124-.464.156-.224.287-.317.392-.276l24.177 4.098c.952.163 1.663.242 2.133.236.455.017.832-.07 1.131-.261.307-.153.608-.442.905-.869.047-.067.138-.054.272.04.135.094.179.174.132.242-.234.336-.41.564-.526.683-.357.417-.786.985-1.286 1.702a110.854 110.854 0 0 0-2.58 3.849c-.181.307-.42.674-.716 1.1-.047.067-.138.054-.273-.04-.134-.094-.178-.174-.131-.241.39-.561.615-1.004.675-1.329.044-.302-.079-.555-.371-.758-.381-.265-1.301-.523-2.76-.773l-17.069-2.895 4.075 5.986 10.507 1.772c1.073.181 1.917.236 2.533.165.638-.055 1.09-.273 1.355-.654.047-.068.138-.054.273.039.134.094.178.175.131.242a6.334 6.334 0 0 1-.606.727c-.241.298-.557.728-.948 1.288a77.792 77.792 0 0 0-2.159 3.243c-.133.24-.325.54-.575.899-.047.067-.138.054-.272-.04-.135-.094-.179-.174-.132-.242.219-.314.338-.58.358-.8.026-.181-.062-.342-.263-.483-.382-.265-1.411-.533-3.089-.802l-4.16-.699 1.668 2.411c.935 1.384 1.728 2.302 2.378 2.756.651.453 1.171.399 1.562-.162.046-.067.137-.054.272.04.134.093.178.174.131.241-.125.18-.28.355-.465.525-.179.209-.565.739-1.159 1.592-.265.381-.563.856-.893 1.426l-.834 1.268c-.031.045-.114.021-.248-.073-.135-.094-.187-.163-.155-.208 1.046-1.503.59-3.669-1.369-6.5l-2.464-3.564-11.324-1.891 8.584 12.424c.531.769 1.087 1.357 1.671 1.763.695.484 1.369.687 2.023.61.638-.056 1.16-.375 1.566-.958.047-.067.138-.054.273.04.134.093.178.174.131.241l-1.111 1.524a48.38 48.38 0 0 0-1.614 2.174c-.313.449-.65.98-1.011 1.595l-.974 1.47ZM425.161 457.178c.037.04.015.097-.066.171a.278.278 0 0 1-.207.077c-.079.035-.128.042-.146.022-1.233-1.761-2.437-3.289-3.614-4.583-.147-.162-.227-.311-.24-.447.005-.116.099-.256.281-.422l13.407-12.193c.06-.055.146-.022.256.1.111.121.135.209.075.264-.647.589-1.066 1.062-1.258 1.421-.211.377-.238.753-.082 1.128.175.395.538.896 1.09 1.503l12.772 14.043c.552.607 1.007 1.006 1.365 1.197.359.191.736.199 1.131.025.414-.155.934-.517 1.561-1.087.061-.055.146-.022.256.099.111.121.136.21.075.265l-12.861 11.696c-.202.184-.386.185-.551.003l-3.73-3.979c-.037-.04-.004-.126.099-.256.083-.113.162-.148.237-.105 1.391.878 2.727 1.251 4.011 1.119 1.283-.133 2.552-.77 3.805-1.91l.91-.827c.607-.552.932-1.088.976-1.608.044-.521-.182-1.054-.679-1.6l-5.627-6.188-2.518 2.29c-1.172 1.067-1.888 2.087-2.147 3.062-.259.974-.058 1.826.604 2.554.055.06.032.137-.069.229-.121.11-.209.135-.265.074l-2.452-2.757-1.354-1.429a39.65 39.65 0 0 1-1.551-1.582c-.036-.041.006-.116.127-.227.121-.11.2-.145.237-.105.754.83 1.666 1.182 2.736 1.059 1.069-.085 2.199-.67 3.392-1.755l2.488-2.262-6.235-6.855c-.533-.586-1.04-.92-1.52-1.001-.48-.08-.962.1-1.448.541l-1.001.911c-1.577 1.434-2.546 2.907-2.908 4.418-.362 1.512-.149 3.147.638 4.907ZM374.242 482.41c-.048.027-.112-.031-.192-.174-.081-.143-.097-.228-.05-.255l6.357-3.586c.523-.295 2.03.095 4.519 1.17 2.503 1.098 5.726 2.779 9.67 5.042.177-.131.445-.298.802-.499.928-.524 1.589-.881 1.984-1.072l-4.452-7.892c-.417-.738-.778-1.24-1.085-1.506a1.227 1.227 0 0 0-1.062-.296c-.424.082-1.017.338-1.779.768-.047.027-.111-.031-.192-.174-.08-.143-.097-.228-.049-.254a41.242 41.242 0 0 1 1.877-1.012l2.734-1.496 2.586-1.506a46.49 46.49 0 0 1 1.909-1.123c.071-.041.147.011.228.153.08.143.085.235.013.275-.761.43-1.275.798-1.542 1.105-.289.321-.4.681-.331 1.082.059.437.289 1.013.692 1.727l9.327 16.534c.403.714.758 1.204 1.065 1.471.307.266.673.358 1.097.275.438-.058 1.026-.296 1.764-.712.047-.027.111.031.192.174s.097.227.049.254l-1.912 1.032a72.711 72.711 0 0 0-2.647 1.399c-.81.457-1.635.969-2.475 1.538a57.6 57.6 0 0 1-1.103.716c-.462.292-.979.6-1.551.922-2.166 1.222-4.073 1.764-5.72 1.626-1.633-.114-2.853-.885-3.659-2.313-.738-1.31-1.053-2.702-.943-4.176.123-1.45.599-2.833 1.427-4.147-3.517-1.782-6.374-3.12-8.573-4.014-2.199-.893-4.006-1.427-5.422-1.601-1.417-.174-2.601.008-3.553.545Zm23.654 1.625c-.625.228-1.342.569-2.152 1.026-1.381.779-2.154 1.717-2.319 2.815-.176 1.135.22 2.559 1.187 4.273 1.101 1.952 2.145 3.136 3.133 3.552.988.415 2.017.321 3.088-.283.953-.537 1.531-1.099 1.734-1.684.203-.586.07-1.295-.4-2.128l-4.271-7.571ZM293.958 500.782a46.432 46.432 0 0 1 3.118-.079c.438-.001.985-.009 1.642-.025a47.82 47.82 0 0 0 2.13-.097l3.025-.237a46.128 46.128 0 0 1 2.206-.184c.055-.004.088.076.098.24.011.163-.011.247-.066.25-.872.057-1.509.167-1.909.33-.401.163-.657.44-.768.83-.137.42-.179 1.039-.126 1.857l1.23 18.944c.053.818.174 1.413.362 1.784.161.373.451.614.869.724.392.139 1.011.181 1.857.126.082-.005.128.074.138.238.011.163-.025.248-.106.253l-2.171.1a72.442 72.442 0 0 0-2.992.112 49.652 49.652 0 0 0-3.429.346 94.858 94.858 0 0 1-2.859.268c-2.755.178-5.231-.209-7.43-1.162-2.225-.951-3.986-2.329-5.281-4.135-1.295-1.806-2.018-3.882-2.171-6.228-.171-2.645.29-5.031 1.385-7.156a12.547 12.547 0 0 1 4.604-5.024c1.975-1.224 4.189-1.916 6.644-2.075Zm.471.914c-1.746.114-3.259.65-4.539 1.61-1.278.987-2.228 2.377-2.852 4.17-.65 1.796-.896 3.907-.739 6.335.151 2.318.642 4.395 1.473 6.231.833 1.864 1.94 3.298 3.32 4.304 1.38 1.006 2.929 1.454 4.648 1.342 1.691-.11 2.839-.349 3.445-.717.606-.368.875-1.084.806-2.147l-1.195-18.412c-.071-1.091-.408-1.85-1.011-2.276-.601-.399-1.72-.546-3.356-.44ZM234.776 502.989c-.009.054-.067.073-.175.055a.283.283 0 0 1-.19-.113c-.076-.04-.112-.074-.108-.101.609-2.061 1.052-3.956 1.33-5.683.035-.216.101-.371.199-.466.094-.068.263-.082.506-.043l17.891 2.879c.081.013.109.101.083.263-.026.162-.08.236-.161.223-.863-.139-1.495-.171-1.894-.097-.427.07-.738.283-.934.639-.2.383-.365.979-.495 1.789l-3.017 18.742c-.13.809-.158 1.414-.084 1.813.074.4.303.699.686.9.379.227.986.407 1.823.542.081.013.108.101.082.263-.026.161-.079.236-.16.223l-17.163-2.762c-.27-.044-.386-.187-.347-.43l.786-5.397c.009-.054.096-.081.262-.082.14-.005.216.035.23.12.18 1.635.722 2.912 1.626 3.833.904.921 2.192 1.516 3.865 1.785l1.215.195c.809.131 1.431.051 1.865-.239.435-.29.711-.799.828-1.528l1.329-8.258-3.36-.541c-1.565-.251-2.809-.175-3.733.23-.923.405-1.463 1.094-1.62 2.065-.013.081-.087.111-.222.089-.161-.026-.236-.08-.223-.161l.627-3.636.272-1.95a39.96 39.96 0 0 1 .271-2.199c.009-.054.094-.068.256-.041.162.026.238.066.23.12-.178 1.106.115 2.039.878 2.799.732.782 1.895 1.301 3.487 1.558l3.319.534 1.473-9.149c.126-.782.07-1.386-.166-1.812-.236-.425-.677-.69-1.325-.795l-1.336-.215c-2.105-.338-3.861-.178-5.268.481-1.408.66-2.554 1.846-3.438 3.558ZM173.315 501.984c-.051-.02-.045-.107.016-.259.061-.152.117-.218.168-.197 1.014.41 1.976.327 2.887-.249.9-.55 1.621-1.497 2.164-2.84l7.864-19.463c.03-.076.114-.101.251-.076.112.016.183.059.213.131l9.627 27.503 5.975-14.788c.542-1.343.694-2.52.454-3.531-.241-1.011-.855-1.716-1.843-2.115-.051-.021-.045-.107.016-.259.061-.152.117-.218.168-.198.71.287 1.249.52 1.619.699l2.038.867 2.372.914c.441.149 1.067.387 1.878.715.076.031.083.122.022.274-.061.152-.13.213-.206.182-1.115-.45-2.148-.411-3.099.119-.977.519-1.736 1.451-2.279 2.794l-6.497 16.08c.468 1.25.94 2.163 1.415 2.738.439.59.976 1.014 1.609 1.27.051.02.046.106-.016.258-.061.152-.117.218-.168.198l-1.581-.683a21.714 21.714 0 0 0-1.429-.622l-2.905-1.129c-.365-.118-.801-.28-1.308-.484-.202-.082-.334-.195-.394-.337a8.482 8.482 0 0 1-.272-.861c-.195-.757-.34-1.273-.436-1.547l-7.025-20.482-4.961 12.279c-.552 1.368-.709 2.558-.469 3.569.24 1.011.855 1.716 1.843 2.115.051.02.045.107-.016.259-.062.152-.118.218-.168.197l-1.62-.698c-.79-.379-1.464-.68-2.022-.906a44.637 44.637 0 0 0-2.159-.784l-1.726-.653ZM143.605 482.488c2.669 1.859 5.798 1.456 9.385-1.208.07-.052.16-.039.272.039.097.101.122.185.075.252-.715.835-1.62 1.92-2.716 3.255-1.112 1.357-1.918 2.395-2.418 3.112-.078.112-.173.129-.286.051-.134-.093-.162-.196-.084-.308.343-.494-.124-1.186-1.402-2.076a237.716 237.716 0 0 0-6.693-4.811 166.86 166.86 0 0 0-4.252-2.862l-2.311-1.56c-.852-.593-1.508-.967-1.968-1.12-.481-.169-.896-.125-1.242.133-.085.075-.184.073-.296-.006-.134-.093-.17-.185-.108-.275.536-.626 1.364-1.648 2.485-3.065a100.335 100.335 0 0 0 2.585-3.496c.047-.068.126-.062.239.016.112.078.156.158.131.241-.866 1.962-1.137 3.689-.811 5.182.311 1.515 1.139 2.741 2.485 3.678.65.453 1.189.612 1.616.477.39-.129.858-.585 1.404-1.37l10.803-15.51c.484-.695.768-1.247.853-1.655.084-.407-.026-.8-.329-1.178-.303-.378-.87-.856-1.7-1.434-.067-.046-.054-.137.04-.272.094-.134.174-.178.242-.131a52.939 52.939 0 0 1 1.894 1.369l2.769 1.979 2.748 1.864a52.19 52.19 0 0 1 1.975 1.326c.067.046.054.137-.039.272-.094.134-.175.178-.242.131-.807-.562-1.441-.92-1.9-1.073-.482-.17-.9-.144-1.253.076-.391.227-.821.677-1.29 1.35l-10.849 15.577c-.531.763-.79 1.349-.775 1.759.014.41.335.833.963 1.271ZM107.608 416.18c-.092-.101-.077-.207.044-.317.122-.11.228-.115.32-.014.368.405.918 1.05 1.65 1.936a66.395 66.395 0 0 0 1.677 1.966c.46.506 1.041 1.104 1.744 1.795a40.117 40.117 0 0 1 1.55 1.583c.074.081.05.176-.072.287-.121.11-.218.125-.292.044-.478-.526-.869-.854-1.172-.984-.342-.133-.655-.07-.938.187-.344.313-.736 1.039-1.177 2.179l-2.219 5.787 6.786 7.462 3.715-1.217c.825-.271 1.491-.636 1.996-1.096.728-.662 1.065-1.43 1.009-2.303-.074-.893-.506-1.775-1.297-2.645-.092-.101-.077-.206.044-.317.122-.11.228-.115.32-.014.331.364.789.909 1.374 1.633a52.85 52.85 0 0 0 1.76 2.057 51.98 51.98 0 0 0 1.854 1.916 40.418 40.418 0 0 1 1.578 1.613c.073.081.05.177-.072.287-.121.111-.219.125-.292.044-.515-.566-1.058-.94-1.63-1.122-.592-.163-1.356-.17-2.292-.021-.956.167-2.26.521-3.911 1.062l-20.454 6.577c-.098.015-.21-.049-.34-.19-.146-.162-.199-.281-.157-.356l8.027-21.155c.792-2.014 1.25-3.501 1.373-4.463.123-.962-.046-1.695-.506-2.201Zm6.693 22.289-6.014-6.613-3.743 9.778 9.757-3.165ZM88.598 391.318c.62-.349 1.045-.652 1.277-.908a.983.983 0 0 0 .233-.838c-.066-.339-.273-.819-.623-1.438l-.684-1.214c-1.048-1.857-2.442-3.188-4.184-3.995-1.766-.793-3.62-.938-5.566-.437-.048.027-.099-.007-.152-.103-.027-.047-.03-.108-.01-.183-.016-.085-.012-.134.011-.147 2.478-1.116 4.503-2.116 6.074-3.003.19-.107.36-.14.509-.099.112.031.221.142.329.333l9.508 16.855c.027.047-.031.111-.174.192s-.228.097-.254.049c-.43-.761-.799-1.275-1.106-1.541-.32-.29-.68-.401-1.081-.332-.438.059-1.014.289-1.728.692l-16.533 9.327c-.715.403-1.198.77-1.45 1.101-.267.307-.359.673-.276 1.097.058.438.296 1.025.712 1.763.027.048-.031.112-.174.193-.143.08-.228.097-.255.049l-.991-1.841a74.066 74.066 0 0 0-1.46-2.754 73.309 73.309 0 0 0-1.602-2.674l-1.063-1.801c-.04-.071.01-.147.154-.228.142-.081.234-.085.274-.014.417.738.797 1.245 1.141 1.522.32.29.693.394 1.117.311.4-.069.958-.305 1.672-.708l16.355-9.226ZM60.53 296.321c.873-.056 1.508-.194 1.904-.411.37-.216.62-.588.75-1.117.128-.556.154-1.421.078-2.593-.006-.082.074-.128.237-.139.164-.011.248.025.254.107a64.35 64.35 0 0 1 .129 2.621l.19 3.562.235 2.984c.062.544.124 1.279.184 2.207.005.082-.074.128-.237.138-.164.011-.249-.025-.254-.106-.057-.873-.166-1.496-.327-1.869-.163-.4-.44-.656-.83-.768-.418-.11-1.036-.138-1.855-.085l-18.943 1.23c-.818.053-1.414.16-1.787.321s-.614.451-.724.869c-.137.42-.178 1.052-.123 1.898.005.082-.074.128-.238.139-.163.01-.248-.025-.253-.107l-.1-2.171a72.59 72.59 0 0 0-.112-2.992 26.287 26.287 0 0 0-.274-2.324c-.05-.353-.107-.802-.17-1.345a38.26 38.26 0 0 1-.163-1.88c-.18-2.782.264-5.016 1.332-6.701 1.041-1.684 2.775-2.604 5.203-2.762 1.691-.11 3.151.234 4.38 1.03 1.23.797 2.19 1.872 2.88 3.224a10.385 10.385 0 0 1 1.174 4.155c.048.737.022 1.382-.08 1.937.004.054-.062.086-.199.095a.782.782 0 0 1-.248-.025c-.085-.049-.116-.102-.092-.159.082-.416.107-.883.073-1.401-.081-1.255-.735-2.253-1.961-2.996-1.228-.769-2.92-1.084-5.074-.944-2.155.14-3.788.712-4.901 1.715-1.114.977-1.615 2.337-1.502 4.083.05.764.26 1.271.633 1.52.372.25 1.077.341 2.113.274l18.698-1.214ZM68.779 229.519c.008-.054.094-.068.256-.041.162.026.238.066.23.12l-1.16 7.205c-.096.594-1.34 1.528-3.732 2.804-2.42 1.272-5.744 2.744-9.972 4.417-.008.22-.044.533-.11.938a42.055 42.055 0 0 1-.398 2.22l8.946 1.439c.837.135 1.455.165 1.854.091.4-.074.697-.289.893-.645.2-.383.37-1.007.509-1.87.008-.054.094-.068.255-.042.162.026.239.066.23.12-.143.891-.27 1.59-.379 2.098l-.535 3.07-.436 2.962a46.6 46.6 0 0 1-.31 2.192c-.014.081-.101.109-.263.082-.162-.026-.237-.079-.224-.16.14-.864.172-1.495.098-1.895-.07-.426-.283-.737-.64-.933-.378-.227-.972-.406-1.782-.536l-18.742-3.016c-.81-.131-1.414-.159-1.813-.085-.4.075-.7.303-.9.686-.227.379-.408.987-.542 1.823-.009.054-.094.068-.256.042-.162-.026-.239-.066-.23-.12l.386-2.139c.254-1.233.44-2.213.556-2.942.148-.917.262-1.882.342-2.893.029-.356.072-.792.127-1.309.06-.544.142-1.14.246-1.787.395-2.456 1.16-4.285 2.295-5.486 1.108-1.206 2.471-1.679 4.09-1.419a7.233 7.233 0 0 1 3.853 1.866c1.057 1.001 1.841 2.235 2.353 3.701 3.585-1.638 6.413-3.037 8.483-4.199 2.07-1.162 3.614-2.242 4.633-3.241 1.019-.999 1.615-2.038 1.789-3.118Zm-16.02 17.48c.213-.63.393-1.404.54-2.322.252-1.565 0-2.754-.754-3.568-.778-.845-2.138-1.424-4.081-1.736-2.213-.356-3.79-.278-4.73.235-.941.513-1.51 1.377-1.705 2.591-.174 1.08-.095 1.881.236 2.405.33.524.969.862 1.913 1.014l8.582 1.381ZM86.043 182.968c.052-.127.153-.16.305-.098.153.061.203.155.152.282a59.301 59.301 0 0 1-1.029 2.326 65.56 65.56 0 0 0-1.043 2.364 46.305 46.305 0 0 0-.861 2.35 39.51 39.51 0 0 1-.753 2.083c-.041.102-.138.122-.29.06-.152-.061-.208-.142-.167-.244.267-.659.393-1.153.379-1.483-.03-.366-.222-.62-.576-.764-.431-.174-1.256-.212-2.474-.115l-6.177.512-3.778 9.351 2.708 2.819c.602.627 1.22 1.068 1.853 1.324.913.368 1.75.338 2.513-.09.773-.455 1.38-1.227 1.82-2.316.051-.127.153-.16.305-.098.152.061.203.155.151.282a39.283 39.283 0 0 1-.874 1.946c-.44.943-.803 1.769-1.09 2.478a52.03 52.03 0 0 0-.922 2.502 40.02 40.02 0 0 1-.77 2.121c-.04.102-.136.122-.289.06-.152-.061-.207-.142-.166-.244.287-.709.388-1.361.303-1.955-.11-.605-.434-1.296-.974-2.075-.566-.788-1.45-1.809-2.655-3.062l-14.8-15.575c-.055-.082-.047-.211.024-.389.082-.202.166-.301.253-.296l22.543-1.947c2.157-.16 3.696-.393 4.616-.699.92-.307 1.507-.777 1.763-1.41Zm-17.177 15.7 3.348-8.287-10.433.87 7.085 7.417ZM85.305 136.901a23.706 23.706 0 0 1 2.496-3.009c.922-.99 1.745-1.716 2.467-2.179.208-.155.383-.216.527-.183.136-.004.336.068.598.217l4.981 2.82c.068.047.073.134.018.262-.056.128-.144.183-.265.165-2.277-.653-4.304-.732-6.08-.237-1.8.479-3.27 1.537-4.41 3.174-1.062 1.525-1.6 3.182-1.614 4.972-.02 1.751.49 3.505 1.53 5.263 1.057 1.735 2.606 3.313 4.647 4.735 2.064 1.437 4.123 2.355 6.177 2.753 2.047.36 3.927.22 5.638-.42 1.705-.678 3.12-1.824 4.245-3.439 1.077-1.548 1.569-3.138 1.473-4.77-.118-1.647-.814-3.614-2.086-5.9-.052-.069-.028-.152.073-.248.101-.097.184-.122.252-.075l3.82 3.41c.238.233.386.403.445.51.036.092.028.27-.023.534-.697 2.579-1.779 4.923-3.248 7.031-1.671 2.4-3.62 4.241-5.845 5.522-2.232 1.244-4.541 1.834-6.928 1.77-2.388-.064-4.624-.822-6.71-2.275-2.13-1.484-3.643-3.354-4.538-5.609-.9-2.293-1.15-4.732-.749-7.317.417-2.607 1.454-5.1 3.11-7.477ZM118.231 102.574c-2.407 2.189-2.71 5.328-.911 9.419.035.079.001.164-.1.256-.119.072-.206.077-.262.017a210.823 210.823 0 0 0-2.568-3.373c-1.076-1.386-1.908-2.402-2.497-3.049-.092-.102-.087-.198.014-.29.121-.11.228-.115.32-.014.405.445 1.183.143 2.336-.905a240.127 240.127 0 0 0 6.179-5.454 170.04 170.04 0 0 0 3.737-3.509l2.035-1.906c.768-.699 1.278-1.255 1.53-1.669.272-.432.321-.846.146-1.24-.054-.1-.03-.196.071-.288.122-.11.219-.125.293-.044.491.662 1.303 1.697 2.436 3.105a99.869 99.869 0 0 0 2.833 3.298c.055.06.032.137-.069.229s-.189.117-.265.074c-1.719-1.28-3.343-1.928-4.871-1.943-1.546-.034-2.926.5-4.139 1.603-.587.534-.861 1.024-.824 1.47.038.409.379.967 1.023 1.674l12.717 13.983c.57.627 1.045 1.027 1.424 1.2.378.172.786.153 1.221-.058.436-.212 1.028-.658 1.776-1.338.061-.056.146-.023.257.099.11.121.135.209.074.265a52.067 52.067 0 0 1-1.756 1.542l-2.545 2.259-2.43 2.265c-.406.406-.983.95-1.731 1.63-.061.055-.147.022-.257-.099-.11-.122-.135-.21-.074-.265.728-.662 1.217-1.2 1.469-1.614.272-.432.34-.845.204-1.238-.134-.432-.477-.951-1.029-1.558l-12.772-14.044c-.626-.687-1.14-1.07-1.542-1.147-.403-.077-.887.142-1.453.657ZM176.16 87.294c.416.738.778 1.24 1.085 1.506.307.266.661.365 1.061.296.424-.082 1.017-.339 1.779-.768.072-.04.148.01.228.154.081.142.085.234.014.274-.786.443-1.411.78-1.877 1.012l-2.734 1.495-2.623 1.527c-.462.292-1.098.667-1.908 1.123-.047.027-.111-.03-.192-.174-.081-.142-.097-.227-.049-.254.761-.43 1.287-.805 1.577-1.126.29-.32.401-.68.332-1.08-.059-.439-.29-1.014-.693-1.729l-9.327-16.533c-.403-.715-.769-1.198-1.1-1.45-.307-.267-.673-.359-1.097-.276-.438.058-1.038.303-1.799.732-.048.027-.112-.03-.193-.174-.08-.142-.097-.227-.049-.254l1.948-1.052a73.308 73.308 0 0 0 2.683-1.42 74.587 74.587 0 0 0 2.709-1.622l1.801-1.063c.072-.04.148.01.228.153.081.143.086.235.014.275-.738.416-1.245.797-1.522 1.141a1.354 1.354 0 0 0-.291 1.153c.069.4.305.958.708 1.672l9.287 16.462ZM219.031 45.759a23.674 23.674 0 0 1 3.827-.797c1.338-.198 2.434-.253 3.287-.165.26.009.435.07.526.186.11.081.221.262.333.543l2.136 5.31c.023.078-.026.15-.15.215-.123.066-.226.054-.31-.036-1.373-1.93-2.908-3.255-4.605-3.976-1.706-.748-3.514-.837-5.427-.268-1.781.53-3.235 1.49-4.361 2.881-1.108 1.356-1.803 3.046-2.085 5.07-.256 2.014-.029 4.214.68 6.598.717 2.41 1.755 4.412 3.113 6.004 1.376 1.558 2.933 2.62 4.67 3.187 1.755.533 3.576.519 5.462-.043 1.808-.538 3.183-1.474 4.126-2.81.935-1.362 1.618-3.333 2.048-5.914.002-.086.073-.136.212-.148.139-.013.22.02.243.098l.861 5.049c.041.33.051.555.03.675-.029.094-.146.229-.351.404-2.153 1.582-4.46 2.739-6.923 3.472-2.803.834-5.474 1.058-8.013.673-2.52-.42-4.693-1.398-6.52-2.936-1.827-1.539-3.102-3.526-3.827-5.962-.741-2.49-.758-4.894-.051-7.215.725-2.354 2.05-4.417 3.976-6.188 1.952-1.778 4.316-3.08 7.093-3.907ZM279.754 56.77c-.004-.055.049-.086.158-.093a.278.278 0 0 1 .21.068c.084.022.127.047.128.074-.134 2.145-.145 4.09-.032 5.836.014.219-.016.385-.091.5-.076.087-.237.138-.483.154l-18.083 1.174c-.082.005-.129-.074-.139-.238-.011-.163.025-.248.107-.253.872-.057 1.495-.166 1.868-.327.401-.163.657-.44.768-.83.11-.418.138-1.036.085-1.855l-1.229-18.943c-.054-.818-.161-1.414-.322-1.787s-.451-.614-.869-.724c-.419-.137-1.052-.178-1.898-.123-.081.005-.128-.074-.138-.238-.011-.163.025-.248.107-.253l17.347-1.126c.273-.018.417.096.433.341l.435 5.436c.004.055-.076.101-.237.14-.135.035-.219.013-.251-.067-.539-1.553-1.352-2.678-2.438-3.375-1.086-.696-2.475-.99-4.166-.88l-1.227.08c-.818.053-1.407.27-1.766.648-.359.38-.514.938-.466 1.674l.541 8.347 3.396-.22c1.582-.103 2.778-.455 3.589-1.055.81-.6 1.183-1.392 1.119-2.374-.005-.082.06-.127.197-.136.163-.01.248.025.253.107l.198 3.685.169 1.961c.114.924.19 1.659.225 2.204.004.055-.077.087-.24.098-.164.01-.247-.012-.251-.066-.073-1.118-.566-1.963-1.479-2.534-.888-.6-2.137-.847-3.746-.742l-3.355.217.6 9.247c.051.79.24 1.367.564 1.73.325.362.815.522 1.47.48l1.35-.088c2.127-.138 3.804-.685 5.029-1.641s2.079-2.367 2.56-4.234Z" fill="#E4E4E4"/></svg>